<?xml version="1.0" encoding="UTF-8"?>
<svg version="1.1" xmlns="http://www.w3.org/2000/svg" width="1208" height="206">
<path d="M0 0 C1.26263672 0.02707031 2.52527344 0.05414063 3.82617188 0.08203125 C5.04755859 0.12199219 6.26894531 0.16195312 7.52734375 0.203125 C8.637146 0.23567383 9.74694824 0.26822266 10.89038086 0.30175781 C14.51853229 0.81444049 16.96455859 1.80373798 20.0625 3.75 C22.69328879 10.1553988 21.98149884 15.9941166 21.0625 22.75 C23.0425 23.245 23.0425 23.245 25.0625 23.75 C25.4646875 22.6053125 25.4646875 22.6053125 25.875 21.4375 C27.0625 18.75 27.0625 18.75 28.47265625 17.421875 C30.52675664 15.26178909 31.48399551 13.03330616 32.6875 10.3125 C33.11289062 9.36503906 33.53828125 8.41757813 33.9765625 7.44140625 C34.88018233 5.20185927 35.56134683 3.1054199 36.0625 0.75 C37.3825 0.42 38.7025 0.09 40.0625 -0.25 C40.90069158 1.37249941 41.7329116 2.99808497 42.5625 4.625 C43.25859375 5.98238281 43.25859375 5.98238281 43.96875 7.3671875 C45.0625 9.75 45.0625 9.75 45.0625 11.75 C46.0525 12.245 46.0525 12.245 47.0625 12.75 C48.11203649 14.13036865 49.10504326 15.55424032 50.0625 17 C50.578125 17.76828125 51.09375 18.5365625 51.625 19.328125 C53.05712824 21.74094976 54.09306947 24.12135183 55.0625 26.75 C54.4025 26.75 53.7425 26.75 53.0625 26.75 C53.5575 29.225 53.5575 29.225 54.0625 31.75 C51.75 32 51.75 32 49.0625 31.75 C47.25 29.9375 47.25 29.9375 46.0625 27.75 C46.0625 26.76 46.0625 25.77 46.0625 24.75 C41.4425 24.75 36.8225 24.75 32.0625 24.75 C31.4025 26.73 30.7425 28.71 30.0625 30.75 C28.26940039 32.54309961 25.73874022 32.04807043 23.3125 32.125 C17.67947539 32.11158804 17.67947539 32.11158804 15.15625 30.6328125 C13.8125 29.25 13.8125 29.25 12.0625 26.75 C11.711875 27.575 11.36125 28.4 11 29.25 C10.0409375 30.4875 10.0409375 30.4875 9.0625 31.75 C5.375 32.0625 5.375 32.0625 2.0625 31.75 C1.25597492 28.86832319 0.88734994 26.18968453 0.74609375 23.203125 C0.70419922 22.35878906 0.66230469 21.51445313 0.61914062 20.64453125 C0.57982422 19.77183594 0.54050781 18.89914063 0.5 18 C0.45681641 17.11183594 0.41363281 16.22367188 0.36914062 15.30859375 C0.26336385 13.12254037 0.16127454 10.93637911 0.0625 8.75 C-1.2575 8.75 -2.5775 8.75 -3.9375 8.75 C-3.97508423 9.63522339 -3.97508423 9.63522339 -4.01342773 10.53833008 C-4.12950052 13.21326814 -4.25217572 15.8878638 -4.375 18.5625 C-4.41431641 19.49126953 -4.45363281 20.42003906 -4.49414062 21.37695312 C-4.53603516 22.26962891 -4.57792969 23.16230469 -4.62109375 24.08203125 C-4.65775146 24.90421143 -4.69440918 25.7263916 -4.73217773 26.57348633 C-4.9375 28.75 -4.9375 28.75 -5.9375 31.75 C-7.9175 32.08 -9.8975 32.41 -11.9375 32.75 C-13.16810421 30.28879159 -13.1432723 28.49223134 -13.25390625 25.7421875 C-13.29580078 24.75605469 -13.33769531 23.76992187 -13.38085938 22.75390625 C-13.42017578 21.72136719 -13.45949219 20.68882813 -13.5 19.625 C-13.54318359 18.58472656 -13.58636719 17.54445313 -13.63085938 16.47265625 C-13.7371288 13.89857472 -13.83916583 11.32439492 -13.9375 8.75 C-15.2575 8.42 -16.5775 8.09 -17.9375 7.75 C-17.83050781 8.306875 -17.72351563 8.86375 -17.61328125 9.4375 C-16.70751858 15.20321508 -16.79496089 19.69645738 -19.9375 24.75 C-23.3983826 28.50473112 -26.73417487 31.43271827 -31.98828125 31.953125 C-40.79212035 32.13558799 -45.63079591 28.51559634 -51.9375 22.75 C-52.123125 23.678125 -52.30875 24.60625 -52.5 25.5625 C-53.9375 28.75 -53.9375 28.75 -56.9375 30.625 C-61.49747311 32.27353151 -66.15814251 32.00964316 -70.9375 31.75 C-73.10467275 27.4156545 -72.12246361 21.57329475 -72.125 16.8125 C-72.13724609 15.60658203 -72.14949219 14.40066406 -72.16210938 13.15820312 C-72.16500977 11.42666992 -72.16500977 11.42666992 -72.16796875 9.66015625 C-72.17207764 8.59933838 -72.17618652 7.53852051 -72.18041992 6.44555664 C-71.9375 3.75 -71.9375 3.75 -69.9375 0.75 C-65.45531892 0.32715273 -61.89983648 0.54870196 -57.9375 2.75 C-54.45407883 5.86019748 -54.45208542 9.40686454 -54.1484375 13.82421875 C-54.1401491 15.75598803 -54.1401491 15.75598803 -52.9375 16.75 C-52.50050781 15.75419922 -52.50050781 15.75419922 -52.0546875 14.73828125 C-49.40207159 9.02431301 -47.18826733 5.28856059 -41.9375 1.75 C-36.64961209 -0.0126293 -31.68793657 -0.07567763 -26.625 2.3125 C-25.738125 2.786875 -24.85125 3.26125 -23.9375 3.75 C-21.66226911 3.70502158 -21.66226911 3.70502158 -19.9375 2.75 C-19.6075 2.09 -19.2775 1.43 -18.9375 0.75 C-12.81993122 -1.02096606 -6.28754755 -0.2111848 0 0 Z M-42.25 9.9375 C-44.41824603 13.55124338 -44.53087198 15.59639617 -43.9375 19.75 C-42.14187595 22.50329021 -40.88495078 24.27627461 -37.9375 25.75 C-32.08200969 26.33120699 -32.08200969 26.33120699 -26.9375 23.8125 C-24.60397898 20.23929593 -24.20443197 18.10259472 -24.44921875 13.90625 C-25.25492563 10.3482484 -27.03122175 8.81668676 -29.9375 6.75 C-35.06635932 4.82667776 -38.38665956 6.28298877 -42.25 9.9375 Z M-64.9375 7.75 C-64.9375 8.74 -64.9375 9.73 -64.9375 10.75 C-64.2775 10.75 -63.6175 10.75 -62.9375 10.75 C-63.2675 9.76 -63.5975 8.77 -63.9375 7.75 C-64.2675 7.75 -64.5975 7.75 -64.9375 7.75 Z M41.0625 16.75 C40.0725 17.41 39.0825 18.07 38.0625 18.75 C39.3825 18.75 40.7025 18.75 42.0625 18.75 C41.7325 18.09 41.4025 17.43 41.0625 16.75 Z M-62.9375 18.75 C-62.9375 20.73 -62.9375 22.71 -62.9375 24.75 C-61.9475 24.42 -60.9575 24.09 -59.9375 23.75 C-60.28536708 21.77463255 -60.28536708 21.77463255 -60.9375 19.75 C-61.5975 19.42 -62.2575 19.09 -62.9375 18.75 Z M52.0625 24.75 C53.0625 26.75 53.0625 26.75 53.0625 26.75 Z " fill="#AAB0B4" transform="translate(619.9375,106.25)"/>
<path d="M0 0 C3 1 3 1 4.16796875 2.99609375 C4.50441406 3.80175781 4.84085938 4.60742188 5.1875 5.4375 C5.53167969 6.24058594 5.87585938 7.04367188 6.23046875 7.87109375 C7 10 7 10 7 12 C7.66 12.33 8.32 12.66 9 13 C10.04953649 14.38036865 11.04254326 15.80424032 12 17.25 C12.515625 18.01828125 13.03125 18.7865625 13.5625 19.578125 C14.99462824 21.99094976 16.03056947 24.37135183 17 27 C16.34 27 15.68 27 15 27 C15.495 29.475 15.495 29.475 16 32 C13.6875 32.25 13.6875 32.25 11 32 C9.1875 30.1875 9.1875 30.1875 8 28 C8 27.01 8 26.02 8 25 C3.38 25 -1.24 25 -6 25 C-6.66 26.98 -7.32 28.96 -8 31 C-9.80175702 32.80175702 -12.37734678 32.29844137 -14.8125 32.375 C-20.61710978 32.3268575 -20.61710978 32.3268575 -23.5625 29.8125 C-24.2740625 28.4203125 -24.2740625 28.4203125 -25 27 C-25.5775 26.113125 -26.155 25.22625 -26.75 24.3125 C-28 22 -28 22 -28 20 C-28.66 20 -29.32 20 -30 20 C-30 23.63 -30 27.26 -30 31 C-31.32 31 -32.64 31 -34 31 C-34 21.43 -34 11.86 -34 2 C-29.71 2 -25.42 2 -21 2 C-16.48288288 6.51711712 -16.48288288 6.51711712 -16.1875 10.625 C-16.08501953 11.78902344 -16.08501953 11.78902344 -15.98046875 12.9765625 C-16 15 -16 15 -17 17 C-17.039992 18.99960012 -17.04346799 21.00047242 -17 23 C-15.68 23.33 -14.36 23.66 -13 24 C-12.731875 23.236875 -12.46375 22.47375 -12.1875 21.6875 C-11 19 -11 19 -9.58984375 17.671875 C-7.53574336 15.51178909 -6.57850449 13.28330616 -5.375 10.5625 C-4.94960938 9.61503906 -4.52421875 8.66757813 -4.0859375 7.69140625 C-2.96180188 5.10915303 -2.96180188 5.10915303 -2.4765625 2.71484375 C-2.24066406 1.86599609 -2.24066406 1.86599609 -2 1 C-1.34 0.67 -0.68 0.34 0 0 Z M3 17 C2.01 17.66 1.02 18.32 0 19 C1.32 19 2.64 19 4 19 C3.67 18.34 3.34 17.68 3 17 Z M14 25 C15 27 15 27 15 27 Z " fill="#799098" transform="translate(658,106)"/>
<path d="M0 0 C1.24716797 0.04833984 2.49433594 0.09667969 3.77929688 0.14648438 C5.07287109 0.20255859 6.36644531 0.25863281 7.69921875 0.31640625 C9.66858398 0.3947168 9.66858398 0.3947168 11.67773438 0.47460938 C14.91431614 0.60407265 18.15057296 0.73903167 21.38671875 0.87890625 C21.38671875 1.20890625 21.38671875 1.53890625 21.38671875 1.87890625 C18.08671875 1.87890625 14.78671875 1.87890625 11.38671875 1.87890625 C11.38671875 11.44890625 11.38671875 21.01890625 11.38671875 30.87890625 C12.70671875 30.87890625 14.02671875 30.87890625 15.38671875 30.87890625 C15.38671875 27.24890625 15.38671875 23.61890625 15.38671875 19.87890625 C16.04671875 19.87890625 16.70671875 19.87890625 17.38671875 19.87890625 C19.01171875 21.87890625 19.01171875 21.87890625 20.38671875 23.87890625 C19.05338542 26.54557292 17.72005208 29.21223958 16.38671875 31.87890625 C14.07671875 31.87890625 11.76671875 31.87890625 9.38671875 31.87890625 C8.58019367 28.99722944 8.21156869 26.31859078 8.0703125 23.33203125 C8.02841797 22.48769531 7.98652344 21.64335938 7.94335938 20.7734375 C7.90404297 19.90074219 7.86472656 19.02804688 7.82421875 18.12890625 C7.78103516 17.24074219 7.73785156 16.35257813 7.69335938 15.4375 C7.5875826 13.25144662 7.48549329 11.06528536 7.38671875 8.87890625 C6.06671875 8.87890625 4.74671875 8.87890625 3.38671875 8.87890625 C3.3616626 9.46905518 3.33660645 10.0592041 3.31079102 10.66723633 C3.19471823 13.34217439 3.07204303 16.01677005 2.94921875 18.69140625 C2.90990234 19.62017578 2.87058594 20.54894531 2.83007812 21.50585938 C2.78818359 22.39853516 2.74628906 23.29121094 2.703125 24.2109375 C2.66646729 25.03311768 2.62980957 25.85529785 2.59204102 26.70239258 C2.38671875 28.87890625 2.38671875 28.87890625 1.38671875 31.87890625 C-1.58328125 32.37390625 -1.58328125 32.37390625 -4.61328125 32.87890625 C-5.84388546 30.41769784 -5.81905355 28.62113759 -5.9296875 25.87109375 C-5.97158203 24.88496094 -6.01347656 23.89882812 -6.05664062 22.8828125 C-6.09595703 21.85027344 -6.13527344 20.81773438 -6.17578125 19.75390625 C-6.21896484 18.71363281 -6.26214844 17.67335938 -6.30664062 16.6015625 C-6.41291005 14.02748097 -6.51494708 11.45330117 -6.61328125 8.87890625 C-7.93328125 8.54890625 -9.25328125 8.21890625 -10.61328125 7.87890625 C-10.51789062 8.45898438 -10.4225 9.0390625 -10.32421875 9.63671875 C-9.61421188 14.63979044 -9.53850954 18.11913587 -11.61328125 22.87890625 C-12.57582289 19.99128132 -12.64148351 18.52320983 -12.48828125 15.56640625 C-12.41861706 11.30295758 -13.34914045 8.55813505 -15.61328125 4.87890625 C-10.98013448 -0.44063263 -6.78347338 -0.27877288 0 0 Z " fill="#E6E9ED" transform="translate(612.61328125,106.12109375)"/>
<path d="M0 0 C6.27 0 12.54 0 19 0 C19 1.98 19 3.96 19 6 C15.04 6 11.08 6 7 6 C7 7.65 7 9.3 7 11 C8.60875 10.2884375 8.60875 10.2884375 10.25 9.5625 C12.80839865 8.46233668 15.25835017 7.54832997 18 7 C19.2380014 10.57644848 18.74926071 13.33694766 18 17 C14.37 17 10.74 17 7 17 C7.98267859 18.20561184 7.98267859 18.20561184 9.84765625 18.09765625 C11.8984375 18.06510417 13.94921875 18.03255208 16 18 C18.93683977 23.01710128 19 24.70324807 19 31 C13.06 31 7.12 31 1 31 C0.67 20.77 0.34 10.54 0 0 Z " fill="#406874" transform="translate(700,107)"/>
<path d="M0 0 C3.81638112 2.48508538 6.2299304 4.3772912 7.6875 8.75 C8.11720458 13.99639308 8.07643513 18.97212973 5.6875 23.75 C2.50399334 27.11594258 -0.70158191 29.58918258 -5.46875 29.8828125 C-6.2421875 29.88023437 -7.015625 29.87765625 -7.8125 29.875 C-8.5859375 29.87757813 -9.359375 29.88015625 -10.15625 29.8828125 C-12.3125 29.75 -12.3125 29.75 -15.3125 28.75 C-17.3125 25.75 -17.3125 25.75 -17.3125 22.75 C-17.93125 22.6675 -18.55 22.585 -19.1875 22.5 C-21.3125 21.75 -21.3125 21.75 -22.44140625 20.0703125 C-24.19566743 15.39752712 -23.52544251 10.50651278 -22.3125 5.75 C-16.9343841 -1.58129354 -8.25140935 -3.11373938 0 0 Z M-15.625 7.625 C-18.24614035 12.47896362 -17.62277709 17.34600741 -17.3125 22.75 C-12.54785054 24.83033991 -8.47224795 25.78568178 -3.3125 24.75 C0.01733304 22.09972472 1.28847417 20.62970848 2.16015625 16.5234375 C2.4394542 12.24086893 2.07665886 10.28370358 -0.5 6.75 C-6.23720003 2.67021332 -10.23780574 3.25700465 -15.625 7.625 Z " fill="#B4BDC3" transform="translate(593.3125,108.25)"/>
<path d="M0 0 C3 1 3 1 4.16796875 2.99609375 C4.50441406 3.80175781 4.84085938 4.60742188 5.1875 5.4375 C5.53167969 6.24058594 5.87585938 7.04367188 6.23046875 7.87109375 C7 10 7 10 7 12 C7.66 12.33 8.32 12.66 9 13 C10.04953649 14.38036865 11.04254326 15.80424032 12 17.25 C12.515625 18.01828125 13.03125 18.7865625 13.5625 19.578125 C14.99462824 21.99094976 16.03056947 24.37135183 17 27 C16.34 27 15.68 27 15 27 C15.33 28.65 15.66 30.3 16 32 C13.6875 32.25 13.6875 32.25 11 32 C9.1875 30.1875 9.1875 30.1875 8 28 C8 27.01 8 26.02 8 25 C3.38 25 -1.24 25 -6 25 C-6.66 26.98 -7.32 28.96 -8 31 C-9.65 31 -11.3 31 -13 31 C-12.39212064 27.4295044 -11.42957067 24.36894994 -9.96875 21.05859375 C-9.57042969 20.14529297 -9.17210937 19.23199219 -8.76171875 18.29101562 C-8.13716797 16.87852539 -8.13716797 16.87852539 -7.5 15.4375 C-6.67430053 13.56242087 -5.85127586 11.68616104 -5.03125 9.80859375 C-4.66580078 8.98157959 -4.30035156 8.15456543 -3.92382812 7.30249023 C-2.94814096 5.04868143 -2.94814096 5.04868143 -2.49804688 2.76196289 C-2.33369141 2.18051514 -2.16933594 1.59906738 -2 1 C-1.34 0.67 -0.68 0.34 0 0 Z M3 17 C2.01 17.66 1.02 18.32 0 19 C1.32 19 2.64 19 4 19 C3.67 18.34 3.34 17.68 3 17 Z M14 25 C15 27 15 27 15 27 Z " fill="#6B8790" transform="translate(658,106)"/>
<path d="M0 0 C1.82421875 1.1015625 1.82421875 1.1015625 3.82421875 3.1015625 C3.94921875 6.2265625 3.94921875 6.2265625 3.82421875 9.1015625 C2.86322266 8.63363281 2.86322266 8.63363281 1.8828125 8.15625 C-2.48297695 6.19131943 -5.27327765 5.00128432 -10.11328125 5.5390625 C-13.68397069 7.36084282 -14.83474194 8.32988945 -16.17578125 12.1015625 C-16.10828082 15.94908711 -15.69437028 18.29256361 -13.61328125 21.5390625 C-10.16709706 23.74815493 -7.09243813 23.85728108 -3.17578125 23.1015625 C-0.6079756 21.97965871 1.47643131 20.66675413 3.82421875 19.1015625 C3.82421875 20.0915625 3.82421875 21.0815625 3.82421875 22.1015625 C3.16421875 22.1015625 2.50421875 22.1015625 1.82421875 22.1015625 C1.82421875 24.0815625 1.82421875 26.0615625 1.82421875 28.1015625 C-2.53231505 30.57552174 -6.26512249 30.64053724 -11.17578125 30.1015625 C-16.37709747 28.30110688 -18.89677842 25.4440257 -22.17578125 21.1015625 C-22.77390625 20.4415625 -23.37203125 19.7815625 -23.98828125 19.1015625 C-25.66184666 16.28292602 -25.58631024 14.31737296 -25.17578125 11.1015625 C-23.86328125 9.5390625 -23.86328125 9.5390625 -22.17578125 8.1015625 C-21.55703125 6.895 -21.55703125 6.895 -20.92578125 5.6640625 C-16.25594589 -1.17391071 -7.58917994 -3.13377269 0 0 Z " fill="#54737F" transform="translate(696.17578125,107.8984375)"/>
<path d="M0 0 C6.27 0 12.54 0 19 0 C19 1.98 19 3.96 19 6 C15.04 6 11.08 6 7 6 C7 7.65 7 9.3 7 11 C8.60875 10.2884375 8.60875 10.2884375 10.25 9.5625 C12.80839865 8.46233668 15.25835017 7.54832997 18 7 C19.2380014 10.57644848 18.74926071 13.33694766 18 17 C14.37 17 10.74 17 7 17 C7.98267859 18.20561184 7.98267859 18.20561184 9.84765625 18.09765625 C11.8984375 18.06510417 13.94921875 18.03255208 16 18 C18.93683977 23.01710128 19 24.70324807 19 31 C13.06 31 7.12 31 1 31 C0.67 20.77 0.34 10.54 0 0 Z M2 1 C2 10.57 2 20.14 2 30 C7.28 30 12.56 30 18 30 C18 28.68 18 27.36 18 26 C14.04 26 10.08 26 6 26 C6 22.7 6 19.4 6 16 C9.63 16 13.26 16 17 16 C17 14.68 17 13.36 17 12 C13.37 12 9.74 12 6 12 C6 10.35 6 8.7 6 7 C5.67 6.67 5.34 6.34 5 6 C11.435 5.505 11.435 5.505 18 5 C18 3.68 18 2.36 18 1 C12.72 1 7.44 1 2 1 Z " fill="#BDCCD5" transform="translate(700,107)"/>
<path d="M0 0 C4.42843226 -0.41777663 8.13693945 -0.31783633 12 2 C13.56894913 4.71000304 14.12857588 6.20711542 13.625 9.3125 C13.41875 9.869375 13.2125 10.42625 13 11 C12.34 11 11.68 11 11 11 C10.6596875 9.7934375 10.6596875 9.7934375 10.3125 8.5625 C9.879375 7.716875 9.44625 6.87125 9 6 C6.45224694 5.10613836 6.45224694 5.10613836 4 5 C4 7.64 4 10.28 4 13 C5.65 13 7.3 13 9 13 C8.67 13.99 8.34 14.98 8 16 C5.5625 17.125 5.5625 17.125 3 18 C2.34 18.33 1.68 18.66 1 19 C0.53248212 21.35599235 0.53248212 21.35599235 0.375 24.0625 C0.30023437 24.98160156 0.22546875 25.90070313 0.1484375 26.84765625 C0.09945312 27.55792969 0.05046875 28.26820313 0 29 C1.03125 28.814375 2.0625 28.62875 3.125 28.4375 C6.76148442 28.02692918 9.45437009 28.221691 13 29 C9.78817851 30.90608098 7.46117397 31.22266247 3.75 31.125 C2.85796875 31.10695312 1.9659375 31.08890625 1.046875 31.0703125 C0.37140625 31.04710937 -0.3040625 31.02390625 -1 31 C-3.16717275 26.6656545 -2.18496361 20.82329475 -2.1875 16.0625 C-2.19974609 14.85658203 -2.21199219 13.65066406 -2.22460938 12.40820312 C-2.22750977 10.67666992 -2.22750977 10.67666992 -2.23046875 8.91015625 C-2.23457764 7.84933838 -2.23868652 6.78852051 -2.24291992 5.69555664 C-2 3 -2 3 0 0 Z " fill="#B1B9BB" transform="translate(550,107)"/>
<path d="M0 0 C1.875 0.25 1.875 0.25 4 1 C7.17436086 6.03902039 6.45842075 11.61621211 5.375 17.25 C3.4996758 21.00064841 1.41334867 22.56189381 -2 25 C-4.81227622 25.93742541 -6.58746844 26.13470844 -9.5 26.125 C-10.2734375 26.12757813 -11.046875 26.13015625 -11.84375 26.1328125 C-14 26 -14 26 -17 25 C-19 22 -19 22 -19 19 C-14.38 19.66 -9.76 20.32 -5 21 C-4.34 19.68 -3.68 18.36 -3 17 C-2.29875 16.566875 -1.5975 16.13375 -0.875 15.6875 C1.37424767 14.03924599 1.37424767 14.03924599 1.375 10.625 C1.03089601 7.29866143 0.29988957 5.03307566 -1 2 C-0.67 1.34 -0.34 0.68 0 0 Z " fill="#ADB7BB" transform="translate(595,112)"/>
<path d="M0 0 C0.33 3.3 0.66 6.6 1 10 C1.99 10 2.98 10 4 10 C4 7.03 4 4.06 4 1 C4.66 0.67 5.32 0.34 6 0 C5.979375 0.928125 5.95875 1.85625 5.9375 2.8125 C6.00727534 6.37104213 6.494425 8.292195 8.5625 11.1875 C11.38742568 13.28808576 13.39849034 13.56367023 16.89453125 13.40625 C20.46263874 12.71778399 22.99385159 11.00409894 26 9 C26 9.99 26 10.98 26 12 C25.34 12 24.68 12 24 12 C24 13.98 24 15.96 24 18 C19.6434662 20.47395924 15.91065876 20.53897474 11 20 C5.79868378 18.19954438 3.27900283 15.3424632 0 11 C-0.598125 10.34 -1.19625 9.68 -1.8125 9 C-3.43148376 6.2732905 -3.211964 4.10880536 -3 1 C-1 0 -1 0 0 0 Z " fill="#8FA4AB" transform="translate(674,118)"/>
<path d="M0 0 C1.45703125 1.01953125 1.45703125 1.01953125 3 3 C3.37644848 5.62939205 3.60133087 8.05072472 3.6875 10.6875 C3.73874023 11.7403418 3.73874023 11.7403418 3.79101562 12.81445312 C3.87329947 14.54241387 3.9383324 16.27118072 4 18 C3.01 18.33 2.02 18.66 1 19 C0.3503125 20.0209375 0.3503125 20.0209375 -0.3125 21.0625 C-2 23 -2 23 -5.1875 23.25 C-6.115625 23.1675 -7.04375 23.085 -8 23 C-8.144375 21.88625 -8.28875 20.7725 -8.4375 19.625 C-8.78372035 16.17857953 -8.78372035 16.17857953 -10 14 C-8.02 13.67 -6.04 13.34 -4 13 C-4 12.34 -4 11.68 -4 11 C-5.32 10.67 -6.64 10.34 -8 10 C-8 7.36 -8 4.72 -8 2 C-5.75 1.6875 -5.75 1.6875 -3 2 C-0.6875 4.5 -0.6875 4.5 1 7 C0.67 4.69 0.34 2.38 0 0 Z M-7 4 C-7 4.99 -7 5.98 -7 7 C-6.34 7 -5.68 7 -5 7 C-5.33 6.01 -5.66 5.02 -6 4 C-6.33 4 -6.66 4 -7 4 Z M-5 15 C-5 16.98 -5 18.96 -5 21 C-4.01 20.67 -3.02 20.34 -2 20 C-2.34786708 18.02463255 -2.34786708 18.02463255 -3 16 C-3.66 15.67 -4.32 15.34 -5 15 Z " fill="#B4BDC0" transform="translate(562,110)"/>
<path d="M0 0 C5.94 0 11.88 0 18 0 C18 1.32 18 2.64 18 4 C15.36 4.33 12.72 4.66 10 5 C10.33 5.33 10.66 5.66 11 6 C11.08713831 7.70772358 11.10700007 9.41898649 11.09765625 11.12890625 C11.09443359 12.16337891 11.09121094 13.19785156 11.08789062 14.26367188 C11.07951172 15.35228516 11.07113281 16.44089844 11.0625 17.5625 C11.05798828 18.65498047 11.05347656 19.74746094 11.04882812 20.87304688 C11.03699826 23.58208495 11.02051543 26.29101599 11 29 C9.68 29 8.36 29 7 29 C7 20.75 7 12.5 7 4 C4.69 4 2.38 4 0 4 C0 2.68 0 1.36 0 0 Z " fill="#88999E" transform="translate(602,108)"/>
<path d="M0 0 C0.99 0.33 1.98 0.66 3 1 C3.90307451 3.70922352 4.10976779 5.22695622 4.0625 8 C4.05347656 8.680625 4.04445313 9.36125 4.03515625 10.0625 C4.02355469 10.701875 4.01195312 11.34125 4 12 C4 14.83967231 4.40267181 17.23735711 5 20 C2.36 20 -0.28 20 -3 20 C-2.47731534 17.23723823 -1.89130413 14.6739124 -1 12 C-2.65 12.66 -4.3 13.32 -6 14 C-5.79503906 13.39671875 -5.59007812 12.7934375 -5.37890625 12.171875 C-4.97478516 10.97304687 -4.97478516 10.97304687 -4.5625 9.75 C-4.29566406 8.96109375 -4.02882813 8.1721875 -3.75390625 7.359375 C-2.96957954 5.04130241 -2.96957954 5.04130241 -2.52734375 2.765625 C-2.35332031 2.18296875 -2.17929687 1.6003125 -2 1 C-1.34 0.67 -0.68 0.34 0 0 Z M3 17 C2.01 17.66 1.02 18.32 0 19 C1.32 19 2.64 19 4 19 C3.67 18.34 3.34 17.68 3 17 Z " fill="#819AA2" transform="translate(658,106)"/>
<path d="M0 0 C5.28 0 10.56 0 16 0 C16 1.32 16 2.64 16 4 C9.565 4.495 9.565 4.495 3 5 C3 5.99 3 6.98 3 8 C2.34 8 1.68 8 1 8 C1 14.6 1 21.2 1 28 C5.95 28 10.9 28 16 28 C16 28.33 16 28.66 16 29 C10.72 29 5.44 29 0 29 C0 19.43 0 9.86 0 0 Z " fill="#51727E" transform="translate(702,108)"/>
<path d="M0 0 C3.78570414 1.26190138 4.21831571 2.54855815 6.1875 5.9375 C6.71730469 6.83339844 7.24710938 7.72929688 7.79296875 8.65234375 C9 11 9 11 9 13 C8.34 13 7.68 13 7 13 C7.33 14.65 7.66 16.3 8 18 C5.6875 18.25 5.6875 18.25 3 18 C1.1875 16.1875 1.1875 16.1875 0 14 C0 13.01 0 12.02 0 11 C-4.62 11 -9.24 11 -14 11 C-14.33 11.66 -14.66 12.32 -15 13 C-15.33 12.01 -15.66 11.02 -16 10 C-7.585 9.505 -7.585 9.505 1 9 C0.67 6.03 0.34 3.06 0 0 Z M6 11 C7 13 7 13 7 13 Z " fill="#CAD6DC" transform="translate(666,120)"/>
<path d="M0 0 C0.66 0.33 1.32 0.66 2 1 C1.67 1.66 1.34 2.32 1 3 C0.960008 4.99960012 0.95653201 7.00047242 1 9 C2.32 9.33 3.64 9.66 5 10 C5.268125 9.195625 5.53625 8.39125 5.8125 7.5625 C6.204375 6.716875 6.59625 5.87125 7 5 C7.99 4.67 8.98 4.34 10 4 C8.58192622 8.47238653 6.88695626 12.71146306 5 17 C6.32 17.33 7.64 17.66 9 18 C5.04 18 1.08 18 -3 18 C-3 17.67 -3 17.34 -3 17 C-1.35 16.67 0.3 16.34 2 16 C1.4946875 15.38511719 0.989375 14.77023438 0.46875 14.13671875 C-0.1809375 13.32847656 -0.830625 12.52023438 -1.5 11.6875 C-2.1496875 10.88699219 -2.799375 10.08648437 -3.46875 9.26171875 C-5 7 -5 7 -5 4 C-4.360625 3.71125 -3.72125 3.4225 -3.0625 3.125 C-0.84793921 2.17176549 -0.84793921 2.17176549 0 0 Z " fill="#E5EBF1" transform="translate(640,120)"/>
<path d="M0 0 C2.31 0 4.62 0 7 0 C7 0.66 7 1.32 7 2 C5.02 2 3.04 2 1 2 C1 2.66 1 3.32 1 4 C1.99 4.33 2.98 4.66 4 5 C4.34615998 10.65394631 3.43425238 14.03006806 1 19 C1.99 19 2.98 19 4 19 C4 21.97 4 24.94 4 28 C2.68 28 1.36 28 0 28 C0 18.76 0 9.52 0 0 Z " fill="#728B92" transform="translate(624,109)"/>
<path d="M0 0 C0.33 3.3 0.66 6.6 1 10 C1.99 10 2.98 10 4 10 C4 7.03 4 4.06 4 1 C4.66 0.67 5.32 0.34 6 0 C5.979375 0.928125 5.95875 1.85625 5.9375 2.8125 C6.00591752 6.30179343 6.52448173 8.27638524 8.4375 11.1875 C12.37542169 13.97285924 16.32313075 13.32131163 21 13 C21 13.66 21 14.32 21 15 C16.71 15 12.42 15 8 15 C8 14.34 8 13.68 8 13 C6.02 13.33 4.04 13.66 2 14 C-2.90153173 8.08315098 -2.90153173 8.08315098 -3.3125 3.5625 C-3.209375 2.716875 -3.10625 1.87125 -3 1 C-1 0 -1 0 0 0 Z " fill="#93ACB4" transform="translate(674,118)"/>
<path d="M0 0 C1.875 0.25 1.875 0.25 4 1 C5.81755631 3.87250159 6.27308888 6.12902383 6.25 9.5 C6.25515625 10.2528125 6.2603125 11.005625 6.265625 11.78125 C5.97250404 14.2296721 5.21816769 15.87304054 4 18 C3.34 18 2.68 18 2 18 C1.67 18.66 1.34 19.32 1 20 C0.34 19.67 -0.32 19.34 -1 19 C-0.505 17.9790625 -0.505 17.9790625 0 16.9375 C1.87229407 11.43763616 1.24043334 7.22767779 -1 2 C-0.67 1.34 -0.34 0.68 0 0 Z " fill="#9EAAAF" transform="translate(595,112)"/>
<path d="M0 0 C0.76347254 2.48128576 0.9921793 4.37539357 0.9375 7 C1.0008138 10.03906223 1.26546518 11.53513473 3 14 C3.99 14.33 4.98 14.66 6 15 C7.1875 17.5625 7.1875 17.5625 8 20 C4.05860922 18.33248852 1.2107188 15.77289351 -2 13 C-2.33 13.66 -2.66 14.32 -3 15 C-3.3152595 9.01006953 -2.68219822 5.36439644 0 0 Z M6 10 C6.825 10.804375 7.65 11.60875 8.5 12.4375 C12.18112274 15.55500586 15.26353911 15.75501064 20 16 C20 16.33 20 16.66 20 17 C10.58997722 17.3690205 10.58997722 17.3690205 6 15 C6 13.35 6 11.7 6 10 Z " fill="#C8CFD2" transform="translate(570,116)"/>
<path d="M0 0 C-0.75 4.75 -0.75 4.75 -3 7 C-3.46006346 9.20250992 -3.46006346 9.20250992 -3.625 11.625 C-3.69976563 12.44226563 -3.77453125 13.25953125 -3.8515625 14.1015625 C-3.90054688 14.72804688 -3.94953125 15.35453125 -4 16 C-4.99 16 -5.98 16 -7 16 C-8.84734221 12.30531558 -8.47487755 8.03320655 -8 4 C-5.4417499 0.16262485 -4.70079715 0 0 0 Z " fill="#62818D" transform="translate(682,112)"/>
<path d="M0 0 C0.99 0.33 1.98 0.66 3 1 C3 6.28 3 11.56 3 17 C-1 16 -1 16 -2.265625 14.2578125 C-3.13976913 11.57028427 -3.06775876 9.67629434 -2.75 6.875 C-2.66234375 6.00617188 -2.5746875 5.13734375 -2.484375 4.2421875 C-2 2 -2 2 0 0 Z " fill="#99A6A9" transform="translate(573,114)"/>
<path d="M0 0 C6.0546875 -0.1953125 6.0546875 -0.1953125 8 0 C10 2 10 2 10.25 4.5 C10 7 10 7 8 9 C4.875 9.125 4.875 9.125 2 9 C1.855625 7.88625 1.71125 6.7725 1.5625 5.625 C1.21627965 2.17857953 1.21627965 2.17857953 0 0 Z " fill="#C7D4DC" transform="translate(626,112)"/>
<path d="M0 0 C0.33 0 0.66 0 1 0 C1 9.57 1 19.14 1 29 C2.32 29 3.64 29 5 29 C5 25.37 5 21.74 5 18 C5.66 18 6.32 18 7 18 C8.625 20 8.625 20 10 22 C8 26 8 26 6 30 C4.02 30 2.04 30 0 30 C0 20.1 0 10.2 0 0 Z " fill="#BBC7CD" transform="translate(623,108)"/>
<path d="M0 0 C2.08218362 -0.10832169 4.16599129 -0.18573541 6.25 -0.25 C7.99023438 -0.31960937 7.99023438 -0.31960937 9.765625 -0.390625 C13 0 13 0 15.3671875 1.8203125 C17.42665213 4.56954997 17.85169847 6.58906489 18 10 C17.34 10.66 16.68 11.32 16 12 C15.67 10.02 15.34 8.04 15 6 C10.32798795 4.79431947 5.78503708 4.90617574 1 5 C1 4.34 1 3.68 1 3 C2.98 3 4.96 3 7 3 C7 2.34 7 1.68 7 1 C4.69 1 2.38 1 0 1 C0 0.67 0 0.34 0 0 Z " fill="#82979D" transform="translate(624,108)"/>
<path d="M0 0 C0.33 0 0.66 0 1 0 C1.33 8.58 1.66 17.16 2 26 C5.465 25.505 5.465 25.505 9 25 C12.4375 25.4375 12.4375 25.4375 15 26 C11.78817851 27.90608098 9.46117397 28.22266247 5.75 28.125 C4.85796875 28.10695312 3.9659375 28.08890625 3.046875 28.0703125 C2.37140625 28.04710937 1.6959375 28.02390625 1 28 C-0.35700647 25.28598706 -0.1123861 23.15153684 -0.09765625 20.1171875 C-0.09443359 18.95058594 -0.09121094 17.78398438 -0.08789062 16.58203125 C-0.07951172 15.35871094 -0.07113281 14.13539062 -0.0625 12.875 C-0.05798828 11.64394531 -0.05347656 10.41289063 -0.04882812 9.14453125 C-0.0370133 6.09630608 -0.02054028 3.04817686 0 0 Z " fill="#D3D5D9" transform="translate(548,110)"/>
<path d="M0 0 C6.0546875 -0.1953125 6.0546875 -0.1953125 8 0 C10 2 10 2 10.25 4.5 C10 7 10 7 8 9 C4.875 9.125 4.875 9.125 2 9 C1.855625 7.88625 1.71125 6.7725 1.5625 5.625 C1.21627965 2.17857953 1.21627965 2.17857953 0 0 Z M5 1 C5 2.98 5 4.96 5 7 C5.99 6.67 6.98 6.34 8 6 C7.65213292 4.02463255 7.65213292 4.02463255 7 2 C6.34 1.67 5.68 1.34 5 1 Z " fill="#E6E9EF" transform="translate(552,124)"/>
<path d="M0 0 C0 0.33 0 0.66 0 1 C-2.05078125 1.22786458 -4.1015625 1.45572917 -6.15234375 1.68359375 C-8.01140229 1.81886614 -8.01140229 1.81886614 -9 3 C-7.865625 3.12375 -6.73125 3.2475 -5.5625 3.375 C-4.386875 3.58125 -3.21125 3.7875 -2 4 C-1.67 4.66 -1.34 5.32 -1 6 C-2.98567708 6.22786458 -4.97135417 6.45572917 -6.95703125 6.68359375 C-9.19396393 6.97170735 -9.19396393 6.97170735 -12 8 C-12 7.01 -12 6.02 -12 5 C-13.98 5.66 -15.96 6.32 -18 7 C-16.82195726 3.46587178 -15.3945434 2.54234878 -12.1875 0.78515625 C-8.20987569 -0.64252676 -4.16225039 -0.30149097 0 0 Z " fill="#9EAFB8" transform="translate(694,107)"/>
<path d="M0 0 C2.64 0 5.28 0 8 0 C8.99 1.98 9.98 3.96 11 6 C4.375 7.125 4.375 7.125 1 6 C0.67 4.02 0.34 2.04 0 0 Z " fill="#FFFEFF" transform="translate(708,125)"/>
<path d="M0 0 C5.28 0 10.56 0 16 0 C16 0.99 16 1.98 16 3 C10.72 3 5.44 3 0 3 C0 2.01 0 1.02 0 0 Z " fill="#436A74" transform="translate(702,108)"/>
<path d="M0 0 C0.33 0.66 0.66 1.32 1 2 C1.66 2 2.32 2 3 2 C3 2.99 3 3.98 3 5 C1.35 5 -0.3 5 -2 5 C-2 5.66 -2 6.32 -2 7 C-1.34 7 -0.68 7 0 7 C-0.33 8.98 -0.66 10.96 -1 13 C-2.65 13 -4.3 13 -6 13 C-5.44271087 9.65626525 -4.64826111 6.96687001 -3 4 C-2.01 4 -1.02 4 0 4 C0 2.68 0 1.36 0 0 Z " fill="#648089" transform="translate(651,124)"/>
<path d="M0 0 C2.95929119 2.75520215 5.03681826 5.46627288 7 9 C4.69 9 2.38 9 0 9 C-1.98 5.535 -1.98 5.535 -4 2 C-2.68 1.34 -1.36 0.68 0 0 Z " fill="#8A9AA2" transform="translate(636,128)"/>
<path d="M0 0 C0.33 0 0.66 0 1 0 C1.08131463 1.43655854 1.13933559 2.8744483 1.1875 4.3125 C1.22230469 5.11300781 1.25710938 5.91351563 1.29296875 6.73828125 C1 9 1 9 -0.38671875 10.79296875 C-2 12 -2 12 -4 12 C-4 11.34 -4 10.68 -4 10 C-4.66 10 -5.32 10 -6 10 C-5.34 7.36 -4.68 4.72 -4 2 C-2.68 2.66 -1.36 3.32 0 4 C0 2.68 0 1.36 0 0 Z " fill="#B4BBBE" transform="translate(566,124)"/>
<path d="M0 0 C-0.33 2.97 -0.66 5.94 -1 9 C-4.63 9 -8.26 9 -12 9 C-12 8.67 -12 8.34 -12 8 C-8.7 8 -5.4 8 -2 8 C-2 6.68 -2 5.36 -2 4 C-5.3 4 -8.6 4 -12 4 C-5 -1.25 -5 -1.25 0 0 Z " fill="#C9D5DF" transform="translate(719,115)"/>
<path d="M0 0 C3 3.75 3 3.75 3 6 C3.66 6.33 4.32 6.66 5 7 C4.67 8.65 4.34 10.3 4 12 C3.34 12 2.68 12 2 12 C1.67 12.66 1.34 13.32 1 14 C0.01 11.36 -0.98 8.72 -2 6 C-1.34 6 -0.68 6 0 6 C0 4.02 0 2.04 0 0 Z " fill="#7F949E" transform="translate(662,112)"/>
<path d="M0 0 C1.66611905 -0.042721 3.33382885 -0.04063832 5 0 C6 1 6 1 6.125 4 C6 7 6 7 5 8 C3.33382885 8.04063832 1.66611905 8.042721 0 8 C0 5.36 0 2.72 0 0 Z M1 2 C1 2.99 1 3.98 1 5 C1.66 5 2.32 5 3 5 C2.67 4.01 2.34 3.02 2 2 C1.67 2 1.34 2 1 2 Z " fill="#D9DBE3" transform="translate(554,112)"/>
<path d="M0 0 C0.66 0 1.32 0 2 0 C5 5.625 5 5.625 5 9 C2.36 9 -0.28 9 -3 9 C-2.44271087 5.65626525 -1.64826111 2.96687001 0 0 Z M3 6 C2.01 6.66 1.02 7.32 0 8 C1.32 8 2.64 8 4 8 C3.67 7.34 3.34 6.68 3 6 Z " fill="#D1DDE6" transform="translate(658,117)"/>
<path d="M0 0 C0 0.66 0 1.32 0 2 C2.97 2 5.94 2 9 2 C8.01 2.33 7.02 2.66 6 3 C5.67 3.99 5.34 4.98 5 6 C-1.52307692 5.50769231 -1.52307692 5.50769231 -3.9375 2.9375 C-4.4634375 1.9784375 -4.4634375 1.9784375 -5 1 C-3 0 -3 0 0 0 Z " fill="#617F89" transform="translate(682,131)"/>
<path d="M0 0 C0.99 0 1.98 0 3 0 C5.10770759 2.88834003 6 4.38462395 6 8 C4.35 8 2.7 8 1 8 C0.34 5.69 -0.32 3.38 -1 1 C-0.67 0.67 -0.34 0.34 0 0 Z " fill="#8498A1" transform="translate(668,130)"/>
<path d="M0 0 C3 0.125 3 0.125 6 1 C7.4375 2.8125 7.4375 2.8125 8 5 C7.625 7.25 7.625 7.25 7 9 C6.34 9 5.68 9 5 9 C4.6596875 7.824375 4.6596875 7.824375 4.3125 6.625 C3.21875 3.78125 3.21875 3.78125 0.375 2.6875 C-0.40875 2.460625 -1.1925 2.23375 -2 2 C-1.34 1.34 -0.68 0.68 0 0 Z " fill="#A7AFB2" transform="translate(556,109)"/>
<path d="M0 0 C0.93619813 3.15506142 1.1057123 5.96586502 1.0625 9.25 C1.05347656 10.14203125 1.04445313 11.0340625 1.03515625 11.953125 C1.02355469 12.62859375 1.01195312 13.3040625 1 14 C0.01 13.67 -0.98 13.34 -2 13 C-2.33 13.66 -2.66 14.32 -3 15 C-3.3152595 9.01006953 -2.68219822 5.36439644 0 0 Z " fill="#E4E6EB" transform="translate(570,116)"/>
<path d="M0 0 C3.09731787 5.50916375 3.63364608 11.54990181 2.0625 17.625 C1.711875 18.40875 1.36125 19.1925 1 20 C0.03745836 17.11237507 -0.02820226 15.64430358 0.125 12.6875 C0.19466419 8.42405133 -0.7358592 5.6792288 -3 2 C-2.01 1.34 -1.02 0.68 0 0 Z " fill="#F0F3F4" transform="translate(600,109)"/>
<path d="M0 0 C1.98 0 3.96 0 6 0 C5.67 1.65 5.34 3.3 5 5 C6.32 5.33 7.64 5.66 9 6 C5.04 6 1.08 6 -3 6 C-3 5.67 -3 5.34 -3 5 C-1.35 4.67 0.3 4.34 2 4 C1.34 2.68 0.68 1.36 0 0 Z " fill="#D7DDE8" transform="translate(640,132)"/>
<path d="M0 0 C0 2.97 0 5.94 0 9 C-0.99 9 -1.98 9 -3 9 C-4.35439668 6.29120665 -4.06501451 3.99066732 -4 1 C-2 0 -2 0 0 0 Z " fill="#4E727F" transform="translate(678,119)"/>
<path d="M0 0 C2.475 0.495 2.475 0.495 5 1 C5.33 1.99 5.66 2.98 6 4 C6.66 4 7.32 4 8 4 C8 4.66 8 5.32 8 6 C5.69 5.34 3.38 4.68 1 4 C0.67 2.68 0.34 1.36 0 0 Z " fill="#97A3A7" transform="translate(576,131)"/>
<path d="M0 0 C1.4800841 0.11362262 2.95910074 0.24122908 4.4375 0.375 C5.26121094 0.44460937 6.08492187 0.51421875 6.93359375 0.5859375 C7.95646484 0.79089844 7.95646484 0.79089844 9 1 C9.33 1.66 9.66 2.32 10 3 C7.02148438 3.34179688 7.02148438 3.34179688 4.04296875 3.68359375 C1.80603607 3.97170735 1.80603607 3.97170735 -1 5 C-0.67 3.35 -0.34 1.7 0 0 Z " fill="#8FA4B0" transform="translate(683,110)"/>
<path d="M0 0 C1.98 0 3.96 0 6 0 C5.67 0.66 5.34 1.32 5 2 C4.64830932 3.32860925 4.31229724 4.66158328 4 6 C2.68 6.33 1.36 6.66 0 7 C0 4.69 0 2.38 0 0 Z " fill="#FBF2FE" transform="translate(629,113)"/>
<path d="M0 0 C0.33 3.63 0.66 7.26 1 11 C-1 9.375 -1 9.375 -3 7 C-3.25 3.75 -3.25 3.75 -3 1 C-1 0 -1 0 0 0 Z " fill="#DEE5E9" transform="translate(674,118)"/>
<path d="M0 0 C2.86724686 0.57344937 3.8614515 0.8614515 6 3 C6.125 6.125 6.125 6.125 6 9 C4.02 8.01 2.04 7.02 0 6 C0.66 5.67 1.32 5.34 2 5 C2 4.01 2 3.02 2 2 C1.34 1.34 0.68 0.68 0 0 Z " fill="#D7DEE2" transform="translate(694,108)"/>
<path d="M0 0 C0.99 0.33 1.98 0.66 3 1 C3.80078125 2.77734375 3.80078125 2.77734375 4.3125 4.9375 C4.49425781 5.64777344 4.67601562 6.35804687 4.86328125 7.08984375 C4.93095703 8.03537109 4.93095703 8.03537109 5 9 C4.34 9.66 3.68 10.32 3 11 C2.67 9.02 2.34 7.04 2 5 C1.01 4.67 0.02 4.34 -1 4 C-0.67 2.68 -0.34 1.36 0 0 Z " fill="#A1AFB6" transform="translate(637,109)"/>
<path d="M0 0 C1.98 0 3.96 0 6 0 C6.042721 1.66611905 6.04063832 3.33382885 6 5 C5 6 5 6 2.4375 6.0625 C1.2309375 6.0315625 1.2309375 6.0315625 0 6 C0.33 5.34 0.66 4.68 1 4 C1.66 4.33 2.32 4.66 3 5 C3 4.01 3 3.02 3 2 C2.01 1.34 1.02 0.68 0 0 Z " fill="#D9E1EA" transform="translate(630,114)"/>
<path d="M0 0 C0.99 0 1.98 0 3 0 C1.70700306 2.88437779 0.34058637 4.87219421 -2 7 C-2.66 6.67 -3.32 6.34 -4 6 C-3.67 5.01 -3.34 4.02 -3 3 C-2.34 3 -1.68 3 -1 3 C-0.67 2.01 -0.34 1.02 0 0 Z " fill="#B3BAC3" transform="translate(597,129)"/>
<path d="M0 0 C1.32 0 2.64 0 4 0 C4 2.31 4 4.62 4 7 C3.01 6.67 2.02 6.34 1 6 C0.67 4.02 0.34 2.04 0 0 Z " fill="#6F8992" transform="translate(636,113)"/>
<path d="M0 0 C1.125 3.75 1.125 3.75 0 6 C-1.65 6 -3.3 6 -5 6 C-5 5.01 -5 4.02 -5 3 C-4.01 2.67 -3.02 2.34 -2 2 C-1.34 2.33 -0.68 2.66 0 3 C0 2.01 0 1.02 0 0 Z " fill="#7C9399" transform="translate(650,131)"/>
<path d="M0 0 C1.32 0.99 2.64 1.98 4 3 C2.25 6.875 2.25 6.875 0 8 C0 5.36 0 2.72 0 0 Z " fill="#EBEFF8" transform="translate(629,127)"/>
<path d="M0 0 C0.99 0.33 1.98 0.66 3 1 C3 1.66 3 2.32 3 3 C3.66 3 4.32 3 5 3 C4.67 4.32 4.34 5.64 4 7 C2.68 6.67 1.36 6.34 0 6 C0 5.34 0 4.68 0 4 C0.66 4 1.32 4 2 4 C1.34 2.68 0.68 1.36 0 0 Z " fill="#ECEAF2" transform="translate(555,113)"/>
<path d="M0 0 C0.33 0 0.66 0 1 0 C1 1.65 1 3.3 1 5 C-0.65 5 -2.3 5 -4 5 C-4 5.66 -4 6.32 -4 7 C-6.475 6.01 -6.475 6.01 -9 5 C-9 4.67 -9 4.34 -9 4 C-6.03 4 -3.06 4 0 4 C0 2.68 0 1.36 0 0 Z " fill="#D5DBE0" transform="translate(620,108)"/>
<path d="M0 0 C0.433125 0.9590625 0.433125 0.9590625 0.875 1.9375 C1.82823451 4.15206079 1.82823451 4.15206079 4 5 C3.34 6.32 2.68 7.64 2 9 C1.67 8.01 1.34 7.02 1 6 C0.01 5.67 -0.98 5.34 -2 5 C-1.34 3.35 -0.68 1.7 0 0 Z " fill="#8596A0" transform="translate(636,115)"/>
<path d="M0 0 C0.86625 0.3403125 0.86625 0.3403125 1.75 0.6875 C1.75 1.6775 1.75 2.6675 1.75 3.6875 C-0.89 3.3575 -3.53 3.0275 -6.25 2.6875 C-2.80384615 -0.38942308 -2.80384615 -0.38942308 0 0 Z " fill="#FFFFFF" transform="translate(717.25,114.3125)"/>
<path d="M0 0 C0.66 0 1.32 0 2 0 C2.66 1.65 3.32 3.3 4 5 C3.01 5.33 2.02 5.66 1 6 C-0.0625 4.125 -0.0625 4.125 -1 2 C-0.67 1.34 -0.34 0.68 0 0 Z " fill="#95A2A7" transform="translate(595,112)"/>
<path d="M0 0 C1.65 0.33 3.3 0.66 5 1 C4.01 1.495 4.01 1.495 3 2 C2.67 2.99 2.34 3.98 2 5 C0.68 4.67 -0.64 4.34 -2 4 C-1.34 3.34 -0.68 2.68 0 2 C0 1.34 0 0.68 0 0 Z " fill="#AFB8BB" transform="translate(592,110)"/>
<path d="M0 0 C0 1.66666667 0 3.33333333 0 5 C-1.9375 4.6875 -1.9375 4.6875 -4 4 C-4.33 3.01 -4.66 2.02 -5 1 C-3.35 0.67 -1.7 0.34 0 0 Z " fill="#6F8A93" transform="translate(633,121)"/>
<path d="M0 0 C0.66 0.66 1.32 1.32 2 2 C1.625 4.625 1.625 4.625 1 7 C-1.97 6.505 -1.97 6.505 -5 6 C-5 5.67 -5 5.34 -5 5 C-3.35 5 -1.7 5 0 5 C0 3.35 0 1.7 0 0 Z " fill="#EDEAF0" transform="translate(621,108)"/>
<path d="" fill="#FFFFFF" transform="translate(0,0)"/>
</svg>
